<?xml version="1.0" encoding="UTF-8" standalone="no"?>
<!-- Created with Inkscape (http://www.inkscape.org/) -->

<svg
   width="103mm"
   height="104mm"
   viewBox="0 0 103 104"
   version="1.1"
   id="svg64489"
   inkscape:version="1.3.2 (091e20e, 2023-11-25, custom)"
   sodipodi:docname="netburner-logo-stencil.svg"
   xmlns:inkscape="http://www.inkscape.org/namespaces/inkscape"
   xmlns:sodipodi="http://sodipodi.sourceforge.net/DTD/sodipodi-0.dtd"
   xmlns="http://www.w3.org/2000/svg"
   xmlns:svg="http://www.w3.org/2000/svg">
  <sodipodi:namedview
     id="namedview64491"
     pagecolor="#ffffff"
     bordercolor="#000000"
     borderopacity="0.25"
     inkscape:showpageshadow="2"
     inkscape:pageopacity="0.0"
     inkscape:pagecheckerboard="0"
     inkscape:deskcolor="#d1d1d1"
     inkscape:document-units="mm"
     showgrid="false"
     inkscape:zoom="5.1754899"
     inkscape:cx="79.992428"
     inkscape:cy="234.56717"
     inkscape:window-width="2287"
     inkscape:window-height="1230"
     inkscape:window-x="124"
     inkscape:window-y="83"
     inkscape:window-maximized="0"
     inkscape:current-layer="g64243"
     showguides="false" />
  <defs
     id="defs64486" />
  <g
     inkscape:groupmode="layer"
     id="layer2"
     inkscape:label="Layer 2"
     style="display:inline" />
  <g
     inkscape:label="Layer 1"
     inkscape:groupmode="layer"
     id="layer1"
     transform="translate(-1.1778794,-2.4993246)"
     style="display:inline">
    <g
       id="g64243"
       transform="matrix(0.62093398,0,0,-0.62093398,-378.96,183.82807)"
       style="display:inline">
      <path
         id="path43118"
         style="color:#000000;fill:#000000;stroke-linecap:round;stroke-miterlimit:10;-inkscape-stroke:none"
         d="m 686.21839,253.97842 c -0.0189,-5.5e-4 -0.0378,-0.002 -0.0566,-0.004 -0.015,5.2e-4 -0.03,5.2e-4 -0.0449,0 l -3.34892,-0.38616 c -0.0193,-0.004 -0.0385,-0.008 -0.0574,-0.0133 -0.0103,-0.001 -0.0206,-0.003 -0.0308,-0.004 l -3.47876,-0.90297 c -0.0107,-0.004 -0.0212,-0.008 -0.0316,-0.0125 -0.0157,-0.004 -0.0312,-0.008 -0.0466,-0.0125 l -3.22075,-1.2908 c -0.006,-0.003 -0.0117,-0.006 -0.0175,-0.009 -5.6e-4,-2.8e-4 -0.001,-5.5e-4 -0.002,-8.3e-4 l -3.22075,-1.41979 c -0.01,-0.006 -0.0196,-0.0114 -0.0291,-0.0175 -0.007,-0.003 -0.0145,-0.005 -0.0216,-0.008 l -3.73591,-2.06395 c -0.009,-0.007 -0.0185,-0.0136 -0.0275,-0.0208 -0.0101,-0.005 -0.0201,-0.01 -0.03,-0.015 l -3.6427,-2.53666 c -0.01,-0.003 -0.02,-0.005 -0.03,-0.008 -0.0807,-0.0296 -0.15818,-0.0673 -0.23136,-0.11235 -0.023,-0.0148 -0.0454,-0.0304 -0.0674,-0.0466 -0.0485,-0.0337 -0.0947,-0.0707 -0.13815,-0.11068 -0.0138,-0.0105 -0.0274,-0.0214 -0.0408,-0.0325 l -0.14065,-0.14148 -0.34538,-0.23969 c -0.009,-0.008 -0.0186,-0.0164 -0.0275,-0.025 -0.006,-0.004 -0.0128,-0.008 -0.0192,-0.0125 l -4.1229,-3.48374 c -0.002,-0.002 -0.004,-0.004 -0.006,-0.006 -0.003,-0.002 -0.006,-0.004 -0.008,-0.006 l -4.76539,-4.26022 -8.3e-4,-8.4e-4 -8.3e-4,-8.3e-4 -2.18962,-1.97656 c -0.006,-0.007 -0.0118,-0.0132 -0.0175,-0.02 -0.0228,-0.0223 -0.044,-0.0462 -0.0633,-0.0716 -0.008,-0.0106 -0.0159,-0.0214 -0.0233,-0.0325 -0.0183,-0.0273 -0.0344,-0.056 -0.0483,-0.0857 -0.006,-0.0128 -0.0121,-0.0259 -0.0175,-0.0391 -0.0117,-0.0314 -0.0208,-0.0637 -0.0275,-0.0965 -0.003,-0.0121 -0.006,-0.0243 -0.008,-0.0366 -0.007,-0.0429 -0.009,-0.0864 -0.007,-0.12983 -10e-6,-0.002 -10e-6,-0.004 0,-0.007 0.003,-0.0474 0.0115,-0.0943 0.025,-0.13981 0.001,-0.004 0.003,-0.008 0.004,-0.0117 0.012,-0.0388 0.0276,-0.0765 0.0466,-0.11236 0.007,-0.0116 0.0141,-0.023 0.0216,-0.0341 0.0105,-0.0189 0.0218,-0.0372 0.0341,-0.0549 l 1.16097,-1.50968 c 0.0132,-0.0153 0.0271,-0.0301 0.0416,-0.0441 0.007,-0.01 0.0147,-0.0191 0.0225,-0.0283 0.004,-0.003 0.008,-0.006 0.0117,-0.008 0.0358,-0.0329 0.0751,-0.0617 0.11735,-0.0857 0.0118,-0.006 0.0237,-0.0115 0.0358,-0.0166 0.0337,-0.0166 0.0688,-0.0303 0.10486,-0.0408 0.0162,-0.005 0.0326,-0.008 0.0491,-0.0117 0.0368,-0.007 0.0741,-0.011 0.11152,-0.0117 0.0144,-0.001 0.0288,-0.002 0.0433,-0.002 0.0478,0.002 0.0953,0.009 0.14148,0.0216 0.0146,0.005 0.0291,0.0106 0.0433,0.0166 0.0339,0.0114 0.0667,0.0256 0.0982,0.0425 0.0154,0.009 0.0304,0.0182 0.0449,0.0283 0.0124,0.007 0.0247,0.0146 0.0366,0.0225 0.0257,0.0198 0.0499,0.0415 0.0724,0.0649 l 3.20245,3.3356 3.43797,2.80631 0.43775,0.32956 c 0.22658,0.0864 0.42419,0.23492 0.57009,0.4286 l 1.54879,1.1643 8.3e-4,8.4e-4 3.19413,2.17463 c 0.006,0.005 0.0123,0.009 0.0183,0.0142 l 0.24135,0.15646 c 0.006,0.001 0.0117,0.002 0.0175,0.003 8.3e-4,2.8e-4 0.002,5.5e-4 0.003,8.3e-4 0.0818,0.0164 0.16176,0.0406 0.23885,0.0724 0.001,5.5e-4 0.002,0.001 0.003,0.002 0.16953,0.071 0.32191,0.17737 0.44691,0.31209 l 0.20307,0.20307 1.38234,0.90048 2.36855,1.24752 4.29434,1.647 4.25939,0.75151 h 2.65983 l 1.56128,-0.60171 c 8.3e-4,-2.8e-4 0.002,-5.6e-4 0.003,-8.3e-4 l 2.06811,-0.85388 1.40897,-1.29496 2.05563,-2.90867 0.36452,-3.5445 -0.1265,-5.6925 -1.01034,-4.94016 -2.04397,-5.50025 c -2.8e-4,-5.6e-4 -5.5e-4,-0.001 -8.3e-4,-0.002 l -1.89834,-4.31348 c -0.001,-0.002 -0.002,-0.003 -0.003,-0.005 l -3.2191,-6.32666 c -0.0287,-0.0575 -0.0486,-0.1189 -0.0591,-0.18226 -9.3e-4,-0.006 -0.002,-0.0127 -0.002,-0.0191 -0.004,-0.0179 -0.006,-0.036 -0.008,-0.0541 -0.005,-0.1109 0.0183,-0.22127 0.0683,-0.32041 0.002,-0.004 0.004,-0.008 0.006,-0.0125 0.0299,-0.0576 0.0684,-0.11035 0.11402,-0.15646 0.001,-0.001 0.002,-0.002 0.003,-0.003 0.0467,-0.0468 0.10031,-0.0861 0.15896,-0.11652 l 8.3e-4,-8.3e-4 c 0.0491,-0.0246 0.1011,-0.0427 0.15479,-0.0541 0.005,-8.9e-4 0.01,-0.002 0.015,-0.002 0.0285,-0.006 0.0574,-0.0109 0.0866,-0.0133 l 2.31778,-0.12899 c 0.0244,-5.6e-4 0.0489,2.7e-4 0.0732,0.002 0.0131,1.6e-4 0.0261,7.2e-4 0.0391,0.002 0.0281,0.004 0.0559,0.01 0.0832,0.0175 0.0117,0.002 0.0234,0.005 0.035,0.007 0.002,8.2e-4 0.004,0.002 0.007,0.002 0.0253,0.009 0.0501,0.0201 0.0741,0.0325 0.0144,0.006 0.0285,0.0122 0.0425,0.0191 0.0178,0.0111 0.035,0.023 0.0516,0.0358 0.0184,0.0121 0.0362,0.0252 0.0533,0.0391 0.029,0.025 0.0558,0.0526 0.0799,0.0824 5.6e-4,8.3e-4 0.001,0.002 0.002,0.002 0.0194,0.0253 0.037,0.052 0.0524,0.0799 0.005,0.007 0.0101,0.0149 0.015,0.0225 l 0.01,0.0183 c 2.8e-4,8.3e-4 5.6e-4,0.002 8.3e-4,0.002 l 1.53631,2.94862 c 0.008,0.0158 0.0157,0.0319 0.0225,0.0483 l 2.29781,4.47327 c 0.004,0.008 0.008,0.0166 0.0117,0.025 l 2.18961,4.77704 c 0.002,0.005 0.004,0.009 0.006,0.0142 l 1.67363,3.87323 c 0.008,0.0193 0.0154,0.0391 0.0216,0.0591 0.002,0.004 0.004,0.008 0.006,0.0125 l 1.41647,4.77538 c 5.7e-4,0.002 0.001,0.004 0.002,0.006 0.002,0.005 0.004,0.0105 0.006,0.0158 l 0.90048,3.48624 c 5.7e-4,0.002 0.001,0.005 0.002,0.007 0.001,0.004 0.003,0.008 0.004,0.0125 l 0.64165,2.8346 c 2.8e-4,0.002 5.6e-4,0.003 8.3e-4,0.005 0.007,0.0329 0.0121,0.0663 0.0141,0.0999 0.001,0.0169 0.002,0.0338 0.002,0.0508 0,8.3e-4 0,0.002 0,0.002 2e-5,0.003 2e-5,0.006 0,0.009 l -0.12817,4.22111 c 1.4e-4,0.008 1.4e-4,0.0155 0,0.0233 l -8.3e-4,0.015 c -3.7e-4,0.0209 -0.002,0.0417 -0.004,0.0624 l -0.38699,2.97109 c -5.4e-4,0.002 -0.001,0.005 -0.002,0.007 -0.005,0.0353 -0.0127,0.0701 -0.0233,0.10403 l -1.03114,3.22824 c -5.5e-4,0.001 -0.001,0.002 -0.002,0.003 -0.0144,0.0447 -0.0337,0.0877 -0.0574,0.12817 -0.001,0.002 -0.002,0.003 -0.003,0.005 -0.0237,0.0395 -0.0516,0.0763 -0.0832,0.10986 -5.6e-4,2.8e-4 -0.001,5.5e-4 -0.002,8.3e-4 -0.003,0.004 -0.006,0.007 -0.009,0.0108 l -2.96277,2.97025 c -0.002,0.001 -0.003,0.002 -0.005,0.003 -0.0368,0.0364 -0.0779,0.0683 -0.12234,0.0949 -0.004,0.003 -0.009,0.005 -0.0133,0.007 -0.0275,0.0157 -0.0562,0.0293 -0.0857,0.0408 l -2.70561,1.03364 c -0.001,2.8e-4 -0.002,5.6e-4 -0.003,8.4e-4 -0.0407,0.015 -0.0828,0.0259 -0.12566,0.0324 -0.006,9.1e-4 -0.0116,0.002 -0.0175,0.002 -0.018,0.002 -0.036,0.004 -0.0541,0.005 z m -38.76894,-19.6641 c -3.59815,-0.40976 -6.196,-3.6791 -5.78737,-7.28291 0.40862,-3.60381 3.67142,-6.20712 7.26959,-5.79736 3.59816,0.40977 6.196,3.67992 5.78737,7.28374 -0.0408,0.35315 -0.36004,0.60645 -0.71322,0.56592 -0.35308,-0.0396 -0.60741,-0.35759 -0.56842,-0.71073 0.33037,-2.91358 -1.74553,-5.52812 -4.65054,-5.85895 -2.90503,-0.33083 -5.51277,1.74779 -5.84314,4.66136 -0.33037,2.91358 1.74467,5.52894 4.64971,5.85978 0.35416,0.0395 0.6089,0.35917 0.56842,0.71323 -0.0408,0.35279 -0.35952,0.60596 -0.7124,0.56592 z m 25.85927,-9.64063 c -0.0874,-6.2e-4 -0.17377,-0.019 -0.25383,-0.0541 -0.004,-0.002 -0.008,-0.003 -0.0125,-0.005 -0.0986,-0.0451 -0.18417,-0.1144 -0.24884,-0.20141 -0.002,-0.002 -0.004,-0.003 -0.007,-0.005 l -0.0524,-0.0724 c -0.14174,-0.0923 -0.26391,-0.21167 -0.35953,-0.35121 l -2.10056,-3.06013 -11.4649,-15.8924 2.2537,17.73081 c 0.001,0.008 0.002,0.0161 0.003,0.0241 0,0.001 0,0.003 0,0.004 0.004,0.0259 0.005,0.0521 0.006,0.0782 -1.9e-4,0.006 -4.7e-4,0.0122 -8.3e-4,0.0183 v 8.4e-4 c -10e-4,0.0335 -0.005,0.0669 -0.0108,0.0999 -2.7e-4,0.001 -5.5e-4,0.002 -8.3e-4,0.003 -0.0322,0.16656 -0.12878,0.3137 -0.26881,0.40946 -5.6e-4,2.8e-4 -0.001,5.6e-4 -0.002,8.4e-4 -0.10677,0.0726 -0.2329,0.11148 -0.36202,0.11152 h -3.73591 c -0.0923,-6e-4 -0.18342,-0.021 -0.26715,-0.0599 -0.002,-5.5e-4 -0.004,-0.001 -0.006,-0.002 -0.0975,-0.0469 -0.18168,-0.11757 -0.24468,-0.20556 -0.003,-0.003 -0.007,-0.006 -0.01,-0.008 l -21.25367,-30.33754 c -0.001,-0.004 -0.003,-0.008 -0.004,-0.0125 -0.0567,-0.085 -0.0924,-0.18228 -0.10403,-0.28379 -0.001,-0.01 -0.002,-0.02 -0.003,-0.03 -0.002,-0.0144 -0.004,-0.0288 -0.006,-0.0433 0.002,-0.088 0.0217,-0.17464 0.0583,-0.25466 0.004,-0.009 0.008,-0.0184 0.0117,-0.0275 0.0457,-0.0922 0.11271,-0.17208 0.19557,-0.23302 0.003,-0.004 0.007,-0.008 0.01,-0.0117 0.004,-0.002 0.008,-0.004 0.0125,-0.006 0.0638,-0.0431 0.13486,-0.0744 0.20973,-0.0924 0.01,-0.002 0.0194,-0.003 0.0291,-0.004 0.0388,-0.009 0.0784,-0.0136 0.11817,-0.015 h 4.12291 c 0.11847,4.5e-4 0.23452,0.0336 0.33539,0.0957 0.003,0.002 0.005,0.003 0.007,0.005 0.0688,0.0436 0.12861,0.0998 0.17643,0.16562 0.001,0.001 0.003,0.002 0.004,0.003 l 13.89836,19.38446 -2.69312,-17.88061 c 5.2e-4,-0.004 0.001,-0.008 0.002,-0.0125 -0.005,-0.0275 -0.008,-0.0553 -0.01,-0.0832 0.001,-0.0764 0.0163,-0.1519 0.0441,-0.22304 0.002,-0.007 0.005,-0.0134 0.007,-0.02 0.0847,-0.20596 0.26973,-0.35356 0.48936,-0.39032 0.003,-0.001 0.006,-0.002 0.008,-0.003 0.004,5.2e-4 0.008,0.001 0.0117,0.002 0.0278,-0.005 0.0558,-0.009 0.0841,-0.01 h 3.9939 c 0.0926,4.8e-4 0.184,0.0209 0.26798,0.0599 0.001,5.5e-4 0.002,0.001 0.003,0.002 0.10165,0.0474 0.18914,0.12058 0.25383,0.21222 l 21.38517,30.46654 c 0.004,0.006 0.007,0.0127 0.0108,0.0191 0.0192,0.0297 0.0359,0.0608 0.0499,0.0932 0.005,0.0115 0.01,0.0232 0.0141,0.035 0.0118,0.0322 0.021,0.0653 0.0275,0.099 0.003,0.0135 0.005,0.0271 0.007,0.0408 0.004,0.0279 0.006,0.0559 0.006,0.0841 -2.6e-4,0.002 -5.4e-4,0.005 -8.3e-4,0.007 -9.6e-4,0.0372 -0.005,0.0742 -0.0125,0.11069 -0.002,0.0114 -0.004,0.0228 -0.006,0.0341 -0.009,0.0362 -0.0219,0.0716 -0.0375,0.10569 -0.004,0.009 -0.008,0.0184 -0.0117,0.0275 -0.0176,0.0342 -0.0382,0.0668 -0.0616,0.0974 -0.005,0.008 -0.0104,0.0151 -0.0158,0.0225 -0.0254,0.0306 -0.0535,0.0587 -0.0841,0.084 -0.006,0.005 -0.0121,0.0107 -0.0183,0.0158 -0.008,0.008 -0.0164,0.0152 -0.025,0.0225 -0.008,0.003 -0.016,0.006 -0.0241,0.008 -0.0814,0.0523 -0.17359,0.0856 -0.26965,0.0974 -0.0122,0.002 -0.0244,0.004 -0.0366,0.005 -0.013,0.002 -0.026,0.003 -0.0391,0.004 z m -32.36237,-4.38756 c -0.0145,-0.002 -0.0289,-0.005 -0.0433,-0.007 -0.0238,-0.003 -0.0474,-0.008 -0.0707,-0.0133 -0.0309,-0.007 -0.0612,-0.0161 -0.0907,-0.0275 -0.0225,-0.009 -0.0444,-0.0193 -0.0657,-0.0308 -0.0288,-0.0154 -0.0563,-0.0329 -0.0824,-0.0524 -0.0173,-0.013 -0.034,-0.0269 -0.0499,-0.0416 -0.015,-0.0116 -0.0294,-0.0238 -0.0433,-0.0366 l -3.86574,-4.26189 c -0.009,-0.0122 -0.0176,-0.0247 -0.0258,-0.0374 -0.009,-0.009 -0.0169,-0.0181 -0.025,-0.0275 l -2.96276,-4.26106 c -0.003,-0.006 -0.006,-0.0116 -0.009,-0.0175 -0.003,-0.004 -0.007,-0.008 -0.01,-0.0125 l -2.7056,-4.38838 c -0.002,-0.004 -0.004,-0.009 -0.006,-0.0133 -0.001,-0.001 -0.002,-0.003 -0.003,-0.004 l -3.99474,-6.97248 c -8.5e-4,-0.002 -0.002,-0.005 -0.002,-0.007 -0.003,-0.004 -0.006,-0.008 -0.009,-0.0125 l -0.1007,-0.19308 c -0.1084,-0.11022 -0.19607,-0.23905 -0.25883,-0.38033 l -0.24134,-0.57424 -2.1039,-4.01638 c -0.004,-0.01 -0.007,-0.0199 -0.0108,-0.03 -0.005,-0.008 -0.0102,-0.016 -0.015,-0.0241 l -2.70477,-6.58466 c -0.002,-0.009 -0.005,-0.0177 -0.007,-0.0266 -0.004,-0.008 -0.007,-0.016 -0.0108,-0.0241 l -1.54713,-4.90604 c -0.002,-0.0121 -0.004,-0.0244 -0.006,-0.0366 -0.004,-0.011 -0.008,-0.0221 -0.0117,-0.0333 l -1.03114,-5.29303 c -0.001,-0.0133 -0.002,-0.0266 -0.002,-0.0399 -0.003,-0.0135 -0.005,-0.0271 -0.007,-0.0408 l -0.25799,-3.8724 c 7e-5,-0.0144 6.2e-4,-0.0289 0.002,-0.0433 -0.001,-0.0144 -0.002,-0.0288 -0.002,-0.0433 l 0.25799,-3.7434 c 0.002,-0.01 0.004,-0.02 0.006,-0.03 0.003,-0.0218 0.007,-0.0435 0.0117,-0.0649 0.005,-0.0262 0.0123,-0.0521 0.0208,-0.0774 0.002,-0.008 0.004,-0.0156 0.007,-0.0233 l 1.28747,-3.22659 c 0.008,-0.0164 0.0165,-0.0325 0.0258,-0.0483 0.0104,-0.0223 0.0221,-0.044 0.0349,-0.0649 0.021,-0.0311 0.0447,-0.0604 0.0707,-0.0874 0.007,-0.009 0.0136,-0.0174 0.0208,-0.0258 l 0.008,-0.007 c 0.001,-0.001 0.002,-0.003 0.003,-0.004 l 2.95111,-2.82877 c 0.008,-0.006 0.016,-0.0118 0.0241,-0.0175 0.0282,-0.0248 0.0586,-0.0471 0.0907,-0.0666 0.0114,-0.007 0.0231,-0.0142 0.035,-0.0208 0.008,-0.005 0.016,-0.01 0.0241,-0.0142 l 1.93162,-0.90381 c 0.0186,-0.008 0.0374,-0.0142 0.0566,-0.02 0.0102,-0.004 0.0204,-0.008 0.0308,-0.0117 0.0567,-0.0171 0.11553,-0.0264 0.17477,-0.0275 0.004,-5.8e-4 0.007,-0.001 0.0108,-0.002 h 7.213 c 0.0133,1.4e-4 0.0267,6.9e-4 0.0399,0.002 0.002,2.6e-4 0.005,5.4e-4 0.007,8.3e-4 0.055,0.004 0.10925,0.0148 0.16146,0.0325 l 4.1229,1.4198 c 0.0181,0.006 0.0358,0.0131 0.0533,0.0208 5.6e-4,2.8e-4 0.001,5.5e-4 0.002,8.3e-4 l 3.73425,1.67946 c 0.0118,0.006 0.0235,0.0119 0.035,0.0183 0.003,0.001 0.007,0.002 0.01,0.003 l 4.50823,2.45343 c 0.0122,0.007 0.0241,0.014 0.0358,0.0216 0.005,0.002 0.01,0.005 0.015,0.007 l 4.6364,3.09759 c 0.0163,0.0109 0.0322,0.0226 0.0474,0.035 l 8.4e-4,8.3e-4 0.002,0.002 c 8.3e-4,5.5e-4 0.002,0.001 0.002,0.002 l 3.98808,3.22492 3.99224,3.22659 c 0.0153,0.0124 0.03,0.0254 0.0441,0.0391 h 8.3e-4 l 4.12124,4.0014 c 0.001,0.001 0.002,0.003 0.003,0.004 l 7.59999,7.48597 c 0.0165,0.0166 0.032,0.0341 0.0466,0.0524 0.001,0.001 0.003,0.003 0.004,0.004 l 4.1229,5.16403 c 0.2227,0.27817 0.17721,0.68431 -0.10153,0.90631 -0.003,0.002 -0.007,0.004 -0.01,0.006 -0.0471,0.0361 -0.0989,0.0655 -0.15397,0.0874 -0.009,0.004 -0.0171,0.007 -0.0258,0.01 -0.0553,0.0194 -0.11298,0.0311 -0.17145,0.035 -0.007,6.7e-4 -0.0139,0.001 -0.0208,0.002 l -2.41266,0.12733 c -0.004,4e-5 -0.008,4e-5 -0.0117,0 l -0.01,8.3e-4 c -0.0545,0.002 -0.10905,-0.003 -0.16229,-0.015 -0.0148,-0.003 -0.0295,-0.007 -0.0441,-0.0108 -0.0551,-0.0146 -0.10796,-0.0364 -0.15729,-0.0649 -0.008,-0.006 -0.0168,-0.012 -0.025,-0.0183 -0.0417,-0.0282 -0.08,-0.0611 -0.11402,-0.0982 -0.007,-0.006 -0.014,-0.0115 -0.0208,-0.0175 l -4.4841,-5.26474 -5.77905,-5.79153 -3.69264,-3.3198 -6.5264,-5.00174 -3.58028,-2.17714 c -0.001,-0.001 -0.003,-0.002 -0.004,-0.003 l -3.92483,-2.28449 -3.91234,-1.5205 -3.50455,-1.00368 h -4.80534 l -3.33478,1.43145 -2.15715,2.64152 -1.21424,3.289 -0.24884,3.98059 0.50184,3.63604 1.14932,4.73377 2.28699,6.35579 0.97954,2.3286 5.17402,10.01598 4.61808,7.19802 3.20329,4.49408 c 0.10872,0.15351 0.1449,0.34687 0.099,0.5293 -2.7e-4,0.001 -5.5e-4,0.003 -8.3e-4,0.004 -0.0102,0.0395 -0.0241,0.078 -0.0416,0.11485 -5.5e-4,0.001 -0.001,0.002 -0.002,0.003 -0.004,0.009 -0.009,0.0184 -0.0141,0.0275 -0.007,0.0124 -0.0135,0.0246 -0.0208,0.0366 -0.009,0.0139 -0.0178,0.0275 -0.0275,0.0408 -8.3e-4,8.4e-4 -0.002,0.002 -0.003,0.002 -0.007,0.009 -0.0142,0.0185 -0.0216,0.0275 -0.008,0.01 -0.0169,0.0197 -0.0258,0.0291 -0.0112,0.0118 -0.0229,0.0232 -0.0349,0.0341 -5.6e-4,2.8e-4 -0.001,5.5e-4 -0.002,8.3e-4 -0.0185,0.0172 -0.0379,0.0333 -0.0582,0.0483 -0.0136,0.008 -0.0275,0.0149 -0.0416,0.0216 -0.0241,0.0147 -0.0491,0.0277 -0.0749,0.0391 -0.0244,0.0107 -0.0494,0.0199 -0.0749,0.0275 -0.0278,0.008 -0.0562,0.0147 -0.0849,0.0191 -0.0259,0.004 -0.052,0.006 -0.0782,0.007 -0.0163,0.002 -0.0327,0.003 -0.0491,0.004 z m 50.13979,-10.97554 c -0.71154,5.4e-4 -1.28875,-0.57593 -1.28913,-1.28747 v -0.77731 h -0.90215 c -0.0813,-3.9e-4 -0.1624,-0.008 -0.24218,-0.0241 -0.0181,-0.004 -0.0362,-0.009 -0.0541,-0.0142 -0.0592,-0.0136 -0.11729,-0.0314 -0.17394,-0.0533 -0.0285,-0.012 -0.0565,-0.0251 -0.0841,-0.0391 -0.0428,-0.0199 -0.0845,-0.0421 -0.12483,-0.0666 -0.0294,-0.0191 -0.058,-0.0394 -0.0857,-0.0608 -0.038,-0.0279 -0.0744,-0.058 -0.10903,-0.0899 -0.0224,-0.0206 -0.044,-0.042 -0.0649,-0.0641 -0.0345,-0.0375 -0.0667,-0.0769 -0.0965,-0.11818 -0.0193,-0.0254 -0.0376,-0.0515 -0.0549,-0.0782 -0.0235,-0.0393 -0.0449,-0.0799 -0.0641,-0.1215 -0.0159,-0.0302 -0.0306,-0.061 -0.0441,-0.0924 -0.0201,-0.0541 -0.0365,-0.10938 -0.0491,-0.16562 -0.006,-0.0196 -0.011,-0.0393 -0.0158,-0.0591 -0.0157,-0.0798 -0.0237,-0.16087 -0.0241,-0.24218 4.7e-4,-0.0793 0.008,-0.15845 0.0233,-0.23635 0.007,-0.0283 0.0146,-0.0563 0.0233,-0.0841 0.0116,-0.0488 0.0261,-0.0969 0.0433,-0.14398 0.0132,-0.0314 0.0276,-0.0622 0.0433,-0.0924 0.0194,-0.0419 0.0411,-0.0828 0.0649,-0.12234 0.0188,-0.0294 0.0388,-0.058 0.0599,-0.0857 0.0265,-0.0358 0.0548,-0.0703 0.0849,-0.1032 0.0239,-0.026 0.0489,-0.051 0.0749,-0.0749 0.0347,-0.0316 0.0711,-0.0614 0.10903,-0.089 0.0251,-0.019 0.051,-0.037 0.0774,-0.0541 0.044,-0.0271 0.0896,-0.0516 0.13648,-0.0732 0.0251,-0.0128 0.0507,-0.0247 0.0766,-0.0358 0.0519,-0.0195 0.10499,-0.0356 0.15896,-0.0483 0.0245,-0.007 0.0492,-0.014 0.0741,-0.02 0.0782,-0.0151 0.15758,-0.0229 0.23719,-0.0233 h 0.90215 v -5.16819 c 0.002,-0.025 0.005,-0.05 0.008,-0.0749 0.003,-0.0592 0.009,-0.11816 0.02,-0.17644 0.008,-0.0342 0.0169,-0.0681 0.0275,-0.10153 0.0151,-0.0541 0.0337,-0.10725 0.0558,-0.15896 0.015,-0.0334 0.0313,-0.0662 0.0491,-0.0982 0.025,-0.0463 0.0528,-0.0911 0.0832,-0.13399 0.0232,-0.0328 0.0479,-0.0644 0.0741,-0.0949 0.0103,-0.0141 0.0208,-0.028 0.0316,-0.0416 l 2.06062,-2.19544 c 0.48711,-0.51795 1.30176,-0.54328 1.8201,-0.0566 0.51843,0.48664 0.54451,1.3013 0.0583,1.8201 l -1.71275,1.82343 v 4.6572 h 0.77398 c 0.0793,4.7e-4 0.15846,0.008 0.23636,0.0233 0.0249,0.006 0.0496,0.0126 0.0741,0.02 0.054,0.0126 0.10706,0.0288 0.15895,0.0483 0.0253,0.0109 0.0503,0.0225 0.0749,0.0349 0.0475,0.0216 0.0936,0.0461 0.13816,0.0732 0.0273,0.0178 0.054,0.0367 0.0799,0.0566 0.0367,0.027 0.072,0.0559 0.1057,0.0866 0.0263,0.0242 0.0516,0.0495 0.0757,0.0757 0.0307,0.0337 0.0596,0.069 0.0865,0.10569 0.0199,0.0259 0.0388,0.0526 0.0566,0.0799 0.0272,0.0445 0.0516,0.0907 0.0732,0.13815 0.0124,0.0246 0.0241,0.0496 0.0349,0.0749 0.0215,0.0564 0.039,0.11425 0.0524,0.17311 0.005,0.0182 0.0104,0.0365 0.015,0.0549 0.0156,0.0795 0.0237,0.16032 0.0241,0.24135 -4e-5,0.0261 -8.7e-4,0.0522 -0.003,0.0782 -0.001,0.0259 -0.004,0.0517 -0.007,0.0774 -5.5e-4,0.003 -0.001,0.006 -0.002,0.008 -0.001,0.0125 -0.003,0.025 -0.005,0.0375 -0.003,0.0203 -0.007,0.0406 -0.0108,0.0608 -8.2e-4,0.003 -0.002,0.007 -0.003,0.01 -0.005,0.0254 -0.0114,0.0507 -0.0183,0.0757 -0.003,0.012 -0.007,0.0239 -0.0108,0.0358 -0.002,0.007 -0.005,0.0145 -0.007,0.0216 -0.005,0.0173 -0.0113,0.0345 -0.0175,0.0516 -0.003,0.007 -0.005,0.0133 -0.008,0.02 -0.007,0.0176 -0.014,0.0351 -0.0216,0.0524 -0.01,0.0216 -0.0199,0.043 -0.0308,0.0641 -0.001,0.002 -0.002,0.004 -0.003,0.006 -8.3e-4,0.001 -0.002,0.003 -0.002,0.004 -0.0111,0.0214 -0.0227,0.0425 -0.035,0.0633 -8.3e-4,0.001 -0.002,0.002 -0.002,0.003 -0.0127,0.0212 -0.026,0.042 -0.0399,0.0624 -0.002,0.004 -0.005,0.007 -0.007,0.0108 -0.004,0.005 -0.008,0.0106 -0.0117,0.0158 -0.0134,0.0184 -0.0273,0.0364 -0.0416,0.0541 -0.002,0.002 -0.004,0.004 -0.006,0.007 -0.0169,0.0205 -0.0343,0.0405 -0.0524,0.0599 -0.001,0.001 -0.003,0.003 -0.004,0.004 -0.0141,0.0151 -0.0285,0.0298 -0.0433,0.0441 -0.009,0.009 -0.0182,0.0173 -0.0275,0.0258 -0.0173,0.0157 -0.0351,0.031 -0.0533,0.0458 -0.001,0.001 -0.003,0.002 -0.004,0.003 -0.0441,0.0358 -0.0905,0.0686 -0.13898,0.0982 -0.001,5.6e-4 -0.002,0.001 -0.003,0.002 -0.024,0.0147 -0.0484,0.0285 -0.0732,0.0416 -0.0211,0.0109 -0.0424,0.0211 -0.0641,0.0308 l -0.002,8.3e-4 c -0.0469,0.0212 -0.0949,0.0395 -0.14398,0.0549 -0.004,0.001 -0.009,0.002 -0.0133,0.003 -0.0204,0.006 -0.0409,0.0122 -0.0616,0.0175 -0.005,0.001 -0.0105,0.002 -0.0158,0.003 -0.0152,0.004 -0.0305,0.007 -0.0458,0.01 -0.0158,0.003 -0.0316,0.006 -0.0474,0.008 -0.0147,0.002 -0.0294,0.005 -0.0441,0.007 -0.007,6.2e-4 -0.0144,0.001 -0.0216,0.002 -0.0185,0.002 -0.0371,0.004 -0.0558,0.005 -0.0258,0.002 -0.0516,0.002 -0.0774,0.002 h -0.77398 v 0.77731 c -3.7e-4,0.71057 -0.57607,1.28664 -1.28664,1.28747 z m -12.88303,-2.06478 c -0.3417,-4.7e-4 -0.66922,-0.13668 -0.91047,-0.37867 -0.001,-0.001 -0.003,-0.003 -0.004,-0.004 l -2.18712,-2.19128 c -0.2425,-0.24397 -0.37735,-0.57481 -0.3745,-0.91879 v -4.23276 c -0.005,-0.34714 0.12972,-0.68173 0.3745,-0.92794 l 2.19128,-2.19378 v -8.3e-4 c 0.24139,-0.24168 0.56889,-0.37759 0.91047,-0.37784 h 4.2519 c 0.71155,3.8e-4 1.28802,0.57759 1.28747,1.28914 -8.4e-4,0.71057 -0.5769,1.28626 -1.28747,1.28663 h -3.71594 l -1.43644,1.43894 v 3.19663 l 1.43644,1.43893 h 3.17998 l 1.43811,-1.4406 v -0.30959 h -2.5067 c -0.71061,-5.7e-4 -1.28607,-0.57603 -1.28664,-1.28664 -5e-4,-0.71137 0.57527,-1.28857 1.28664,-1.28914 h 3.40302 c 0.12625,-0.0417 0.2582,-0.0636 0.39115,-0.0649 0.7122,-5.4e-4 1.28968,0.57694 1.28913,1.28914 v 2.19544 c -7.2e-4,0.01 -0.002,0.0194 -0.002,0.0291 -0.001,0.0566 -0.006,0.11302 -0.015,0.16894 -0.002,0.0142 -0.004,0.0283 -0.007,0.0424 -0.0119,0.0619 -0.0283,0.12279 -0.0491,0.18226 -0.005,0.0131 -0.01,0.0262 -0.015,0.0391 -0.0208,0.0543 -0.0453,0.10713 -0.0732,0.15812 -0.009,0.0163 -0.0185,0.0324 -0.0283,0.0483 -0.0296,0.0484 -0.0624,0.0949 -0.0982,0.13899 -0.009,0.0115 -0.0181,0.0229 -0.0275,0.0341 -0.0197,0.0229 -0.0403,0.0451 -0.0616,0.0666 l -2.18962,2.19544 c -0.003,0.003 -0.006,0.005 -0.009,0.007 -0.0539,0.053 -0.1124,0.10121 -0.17477,0.14398 -0.009,0.006 -0.0171,0.0112 -0.0258,0.0166 -0.13666,0.0898 -0.28918,0.15282 -0.44941,0.18559 h -8.3e-4 c -0.0825,0.0165 -0.16639,0.0248 -0.2505,0.025 h -0.002 z"
         sodipodi:nodetypes="cccccccccccccccccccccccccccccccccccccccccccccccccccccccccccccccccccccccccccccccccccccccccccccccccccccccsccccccccccccccccccccccccccccccccccccccccsccccccccccccccccccccccccccccsscccssccccccccccccccccccccccccccccccccccccccccccccccccccccccccccccccccccccccccccccccccccccccccccccccccccccccccccccccccccccccccccccccccccccccccccccccccccccccccccccccscccccccccccccccccccccccccccccccccccccccccccccccccccccccsccccccscccccccccccccscccccccccccccccccccccccccccccccccccccccccccccccccccccccccccccccccccccccsccccccccsccccccccccccccccccccscccccccccccccccccccccccccccccccccccccccccscc" />
      <path
         id="path47248"
         style="color:#000000;fill:#000000;stroke-linecap:round;stroke-miterlimit:10;-inkscape-stroke:none"
         d="M 699.58828 211.50603 A 1.28815 1.28815 0 0 1 699.32945 211.4769 A 1.28815 1.28815 0 0 1 699.25039 211.45609 A 1.28815 1.28815 0 0 1 699.07479 211.39451 A 1.28815 1.28815 0 0 1 698.99572 211.35789 A 1.28815 1.28815 0 0 1 698.81929 211.2472 A 1.28815 1.28815 0 0 1 698.77601 211.21641 A 1.28815 1.28815 0 0 1 698.59042 211.03165 A 1.28815 1.28815 0 0 1 698.55214 210.97756 A 1.28815 1.28815 0 0 1 698.44645 210.80778 A 1.28815 1.28815 0 0 1 698.41066 210.73205 A 1.28815 1.28815 0 0 1 698.34991 210.55728 A 1.28815 1.28815 0 0 1 698.32744 210.47572 A 1.28815 1.28815 0 0 1 698.29914 210.21689 L 698.29914 207.24581 A 1.28815 1.28815 0 0 1 699.58828 205.95667 A 1.28815 1.28815 0 0 1 700.87492 207.24581 L 700.87492 208.92942 L 705.49383 208.92942 L 706.92944 207.48965 L 706.92944 206.49097 L 705.493 205.05037 L 702.80654 205.05037 A 1.28815 1.28815 0 0 1 701.5199 203.76373 A 1.28815 1.28815 0 0 1 702.80654 202.47459 L 705.493 202.47459 L 706.92944 201.03399 L 706.92944 200.03614 L 705.49134 198.59553 L 700.87492 198.59553 L 700.87492 200.27915 A 1.28815 1.28815 0 0 1 699.58828 201.56829 A 1.28815 1.28815 0 0 1 698.29914 200.27915 L 698.29914 197.3089 A 1.28815 1.28815 0 0 1 698.32744 197.05007 A 1.28815 1.28815 0 0 1 698.34991 196.96768 A 1.28815 1.28815 0 0 1 698.40983 196.79624 A 1.28815 1.28815 0 0 1 698.44728 196.71551 A 1.28815 1.28815 0 0 1 698.55131 196.5499 A 1.28815 1.28815 0 0 1 698.59042 196.49414 A 1.28815 1.28815 0 0 1 698.77352 196.31104 A 1.28815 1.28815 0 0 1 698.82928 196.27193 A 1.28815 1.28815 0 0 1 698.99489 196.1679 A 1.28815 1.28815 0 0 1 699.07562 196.13045 A 1.28815 1.28815 0 0 1 699.24706 196.07053 A 1.28815 1.28815 0 0 1 699.32945 196.04806 A 1.28815 1.28815 0 0 1 699.58828 196.01976 L 706.0273 196.01976 A 1.28815 1.28815 0 0 0 706.02813 196.01976 A 1.28815 1.28815 0 0 0 706.02896 196.01976 A 1.28815 1.28815 0 0 0 706.02979 196.01976 A 1.28815 1.28815 0 0 1 706.27197 196.0439 A 1.28815 1.28815 0 0 1 706.28695 196.04639 A 1.28815 1.28815 0 0 1 706.74468 196.23781 A 1.28815 1.28815 0 0 1 706.74718 196.2403 A 1.28815 1.28815 0 0 1 706.9594 196.4184 L 709.12904 198.59221 A 1.28815 1.28815 0 0 1 709.33294 198.85769 A 1.28815 1.28815 0 0 0 709.33377 198.85852 A 1.28815 1.28815 0 0 1 709.48358 199.26965 A 1.28815 1.28815 0 0 1 709.48691 199.29045 A 1.28815 1.28815 0 0 1 709.50438 199.48686 A 1.28815 1.28815 0 0 1 709.50605 199.50184 L 709.50605 201.56829 A 1.28815 1.28815 0 0 1 709.50438 201.58327 A 1.28815 1.28815 0 0 1 709.48691 201.77967 A 1.28815 1.28815 0 0 1 709.48358 201.80048 A 1.28815 1.28815 0 0 1 709.33377 202.2116 A 1.28815 1.28815 0 0 0 709.33294 202.21244 A 1.28815 1.28815 0 0 1 709.20395 202.39636 A 1.28815 1.28815 0 0 1 709.20062 202.39969 A 1.28815 1.28815 0 0 1 709.12904 202.47875 L 707.8474 203.76289 L 709.12904 205.04704 A 1.28815 1.28815 0 0 1 709.20395 205.12943 A 1.28815 1.28815 0 0 1 709.20644 205.13276 A 1.28815 1.28815 0 0 1 709.33294 205.31335 A 1.28815 1.28815 0 0 0 709.33377 205.31418 A 1.28815 1.28815 0 0 1 709.42782 205.51642 A 1.28815 1.28815 0 0 1 709.42865 205.52058 A 1.28815 1.28815 0 0 1 709.48441 205.72697 A 1.28815 1.28815 0 0 1 709.48691 205.74362 A 1.28815 1.28815 0 0 1 709.50438 205.94169 A 1.28815 1.28815 0 0 1 709.50605 205.95667 L 709.50605 208.02312 A 1.28815 1.28815 0 0 1 709.50438 208.03726 A 1.28815 1.28815 0 0 1 709.48691 208.237 A 1.28815 1.28815 0 0 1 709.48441 208.25365 A 1.28815 1.28815 0 0 1 709.42948 208.45754 A 1.28815 1.28815 0 0 1 709.42366 208.47252 A 1.28815 1.28815 0 0 1 709.33377 208.66644 A 1.28815 1.28815 0 0 0 709.33294 208.66727 A 1.28815 1.28815 0 0 1 709.20395 208.85119 A 1.28815 1.28815 0 0 1 709.20145 208.85369 A 1.28815 1.28815 0 0 1 709.12904 208.93358 L 706.9594 211.10656 A 1.28815 1.28815 0 0 1 706.52081 211.40783 A 1.28815 1.28815 0 0 1 706.2803 211.48023 A 1.28815 1.28815 0 0 1 706.27697 211.48023 A 1.28815 1.28815 0 0 1 706.0273 211.50603 L 699.58828 211.50603 z M 712.46881 207.24581 A 1.28815 1.28815 0 0 1 711.17968 205.95667 L 711.17968 199.50184 A 1.28815 1.28815 0 0 1 711.18134 199.49019 A 1.28815 1.28815 0 0 1 711.20964 199.23469 A 1.28815 1.28815 0 0 1 711.23793 199.14315 A 1.28815 1.28815 0 0 1 711.29702 198.9742 A 1.28815 1.28815 0 0 1 711.34529 198.88349 A 1.28815 1.28815 0 0 1 711.43434 198.74118 A 1.28815 1.28815 0 0 1 711.50591 198.65462 A 1.28815 1.28815 0 0 1 711.55668 198.59221 L 713.7463 196.39843 A 1.28815 1.28815 0 0 1 713.80289 196.35182 A 1.28815 1.28815 0 0 1 713.90026 196.27193 A 1.28815 1.28815 0 0 1 714.02842 196.1912 A 1.28815 1.28815 0 0 1 714.13329 196.13461 A 1.28815 1.28815 0 0 1 714.28975 196.07968 A 1.28815 1.28815 0 0 1 714.38961 196.04972 A 1.28815 1.28815 0 0 1 714.65593 196.01976 A 1.28815 1.28815 0 0 1 714.65843 196.01976 L 721.09994 196.01976 A 1.28815 1.28815 0 0 1 721.21146 196.02475 A 1.28815 1.28815 0 0 1 721.24891 196.02975 A 1.28815 1.28815 0 0 1 721.30883 196.03724 A 1.28815 1.28815 0 0 1 721.36376 196.04806 A 1.28815 1.28815 0 0 1 721.41786 196.06054 A 1.28815 1.28815 0 0 1 721.4628 196.07302 A 1.28815 1.28815 0 0 1 721.5144 196.08884 A 1.28815 1.28815 0 0 1 721.57182 196.11047 A 1.28815 1.28815 0 0 1 721.61343 196.12795 A 1.28815 1.28815 0 0 1 721.6667 196.15209 A 1.28815 1.28815 0 0 1 721.74326 196.19287 A 1.28815 1.28815 0 0 1 721.74909 196.19619 A 1.28815 1.28815 0 0 1 721.814 196.23781 A 1.28815 1.28815 0 0 1 721.84812 196.26028 A 1.28815 1.28815 0 0 1 721.92719 196.32186 A 1.28815 1.28815 0 0 0 721.92802 196.32269 A 1.28815 1.28815 0 0 1 722.08614 196.48082 A 1.28815 1.28815 0 0 1 722.14107 196.55156 A 1.28815 1.28815 0 0 1 722.14606 196.55905 A 1.28815 1.28815 0 0 1 722.16937 196.59317 A 1.28815 1.28815 0 0 1 722.21431 196.66474 A 1.28815 1.28815 0 0 1 722.22263 196.68056 A 1.28815 1.28815 0 0 1 722.25509 196.74131 A 1.28815 1.28815 0 0 1 722.27756 196.78958 A 1.28815 1.28815 0 0 1 722.30253 196.85117 A 1.28815 1.28815 0 0 1 722.31334 196.88113 A 1.28815 1.28815 0 0 1 722.33582 196.95187 A 1.28815 1.28815 0 0 1 722.34663 196.98848 A 1.28815 1.28815 0 0 1 722.35995 197.05007 A 1.28815 1.28815 0 0 1 722.3691 197.1 A 1.28815 1.28815 0 0 1 722.38159 197.19654 A 1.28815 1.28815 0 0 1 722.38242 197.20736 A 1.28815 1.28815 0 0 1 722.38658 197.3089 L 722.38658 205.95667 A 1.28815 1.28815 0 0 1 721.09994 207.24581 A 1.28815 1.28815 0 0 1 719.81081 205.95667 L 719.81081 198.59553 L 715.19439 198.59553 L 713.75545 200.03697 L 713.75545 205.95667 A 1.28815 1.28815 0 0 1 712.46881 207.24581 z M 725.34935 207.24581 A 1.28815 1.28815 0 0 1 724.06271 205.95667 L 724.06271 201.5841 A 1.28815 1.28815 0 0 1 724.06271 201.54998 L 724.06271 197.3089 A 1.28815 1.28815 0 0 1 724.10182 197.00846 A 1.28815 1.28815 0 0 1 724.12679 196.9244 A 1.28815 1.28815 0 0 1 724.21501 196.71301 A 1.28815 1.28815 0 0 1 724.25412 196.63978 A 1.28815 1.28815 0 0 1 724.68106 196.21201 A 1.28815 1.28815 0 0 1 724.7543 196.17289 A 1.28815 1.28815 0 0 1 724.96652 196.08467 A 1.28815 1.28815 0 0 1 725.04891 196.05971 A 1.28815 1.28815 0 0 1 725.34935 196.01976 A 1.28815 1.28815 0 0 1 725.4617 196.02475 A 1.28815 1.28815 0 0 1 725.46336 196.02475 A 1.28815 1.28815 0 0 1 725.55574 196.0364 A 1.28815 1.28815 0 0 1 725.58986 196.04223 A 1.28815 1.28815 0 0 1 725.65561 196.05721 A 1.28815 1.28815 0 0 1 725.69722 196.0672 A 1.28815 1.28815 0 0 1 725.79043 196.09716 A 1.28815 1.28815 0 0 1 725.80292 196.10215 A 1.28815 1.28815 0 0 1 725.89446 196.14043 A 1.28815 1.28815 0 0 1 725.90445 196.14543 A 1.28815 1.28815 0 0 1 725.97685 196.18288 A 1.28815 1.28815 0 0 1 726.00598 196.19952 A 1.28815 1.28815 0 0 1 726.0892 196.25279 A 1.28815 1.28815 0 0 1 726.09337 196.25528 A 1.28815 1.28815 0 0 1 726.17825 196.32103 A 1.28815 1.28815 0 0 1 726.18741 196.32935 A 1.28815 1.28815 0 0 1 726.26148 196.39676 A 1.28815 1.28815 0 0 1 726.2698 196.40592 A 1.28815 1.28815 0 0 1 726.33721 196.47999 A 1.28815 1.28815 0 0 1 726.34054 196.48415 A 1.28815 1.28815 0 0 1 726.45872 196.65226 A 1.28815 1.28815 0 0 1 726.47536 196.68139 A 1.28815 1.28815 0 0 1 726.51781 196.76378 A 1.28815 1.28815 0 0 1 726.52114 196.77127 A 1.28815 1.28815 0 0 1 726.56108 196.86781 A 1.28815 1.28815 0 0 1 726.56441 196.87696 A 1.28815 1.28815 0 0 1 726.59188 196.96601 A 1.28815 1.28815 0 0 1 726.60103 197.00263 A 1.28815 1.28815 0 0 1 726.61601 197.06838 A 1.28815 1.28815 0 0 1 726.62184 197.1025 A 1.28815 1.28815 0 0 1 726.63349 197.19654 A 1.28815 1.28815 0 0 0 726.63349 197.19738 A 1.28815 1.28815 0 0 1 726.63848 197.3089 L 726.63848 201.03649 L 728.45109 202.85326 L 730.26454 204.67003 L 731.79086 204.67003 A 1.28815 1.28815 0 0 1 733.07833 205.95667 A 1.28815 1.28815 0 0 1 731.79086 207.24581 L 729.72858 207.24581 A 1.28815 1.28815 0 0 1 729.4814 207.22084 A 1.28815 1.28815 0 0 1 729.4556 207.21335 A 1.28815 1.28815 0 0 1 729.2542 207.1526 A 1.28815 1.28815 0 0 1 729.19178 207.12347 A 1.28815 1.28815 0 0 1 729.03949 207.04108 A 1.28815 1.28815 0 0 1 728.9754 206.99614 A 1.28815 1.28815 0 0 1 728.85057 206.89377 A 1.28815 1.28815 0 0 1 728.81811 206.86714 L 726.63848 204.68335 L 726.63848 205.95667 A 1.28815 1.28815 0 0 1 725.34935 207.24581 z M 736.52712 207.24581 A 1.28815 1.28815 0 0 1 736.21587 207.20586 A 1.28815 1.28815 0 0 1 736.11683 207.17091 A 1.28815 1.28815 0 0 1 735.92209 207.08935 A 1.28815 1.28815 0 0 1 735.82471 207.02859 A 1.28815 1.28815 0 0 1 735.66326 206.90542 A 1.28815 1.28815 0 0 1 735.57837 206.8197 A 1.28815 1.28815 0 0 1 735.4552 206.65991 A 1.28815 1.28815 0 0 1 735.39611 206.56587 A 1.28815 1.28815 0 0 1 735.31039 206.35864 A 1.28815 1.28815 0 0 1 735.2796 206.26959 A 1.28815 1.28815 0 0 1 735.23799 205.95667 L 735.23799 197.3089 A 1.28815 1.28815 0 0 1 736.52712 196.01976 A 1.28815 1.28815 0 0 1 737.81459 197.3089 L 737.81459 204.67003 L 742.43101 204.67003 L 743.86912 203.23026 L 743.86912 197.3089 A 1.28815 1.28815 0 0 1 745.15659 196.01976 A 1.28815 1.28815 0 0 1 746.44573 197.3089 L 746.44573 203.76373 A 1.28815 1.28815 0 0 1 746.44323 203.7837 A 1.28815 1.28815 0 0 1 746.4141 204.0392 A 1.28815 1.28815 0 0 1 746.40827 204.06167 A 1.28815 1.28815 0 0 1 746.32422 204.30302 A 1.28815 1.28815 0 0 1 746.31173 204.33048 A 1.28815 1.28815 0 0 1 746.30841 204.33631 A 1.28815 1.28815 0 0 1 746.17025 204.55685 A 1.28815 1.28815 0 0 1 746.15278 204.57765 A 1.28815 1.28815 0 0 1 746.06872 204.6717 L 743.87911 206.86714 A 1.28815 1.28815 0 0 1 743.68353 207.02776 A 1.28815 1.28815 0 0 1 743.6802 207.02943 A 1.28815 1.28815 0 0 1 743.22746 207.21834 A 1.28815 1.28815 0 0 1 743.21165 207.22167 A 1.28815 1.28815 0 0 1 742.96864 207.24581 A 1.28815 1.28815 0 0 0 742.96781 207.24581 A 1.28815 1.28815 0 0 0 742.96697 207.24581 L 736.52712 207.24581 z " />
      <path
         id="path47300"
         style="color:#000000;fill:#000000;stroke-linecap:round;stroke-miterlimit:10;-inkscape-stroke:none"
         d="M 751.59644 207.24581 A 1.28815 1.28815 0 0 1 751.19863 207.1759 A 1.28815 1.28815 0 0 1 750.88238 207.02859 A 1.28815 1.28815 0 0 1 750.88072 207.02776 A 1.28815 1.28815 0 0 1 750.68681 206.86797 A 1.28815 1.28815 0 0 1 750.68514 206.86714 L 748.50634 204.68168 A 1.28815 1.28815 0 0 1 748.11935 203.76373 L 748.11935 199.50184 A 1.28815 1.28815 0 0 1 748.14432 199.25217 A 1.28815 1.28815 0 0 1 748.17844 199.13982 A 1.28815 1.28815 0 0 1 748.21756 199.00916 A 1.28815 1.28815 0 0 1 748.33574 198.78695 A 1.28815 1.28815 0 0 0 748.33657 198.78612 A 1.28815 1.28815 0 0 1 748.49636 198.59221 A 1.28815 1.28815 0 0 0 748.49719 198.59137 L 750.68514 196.39843 A 1.28815 1.28815 0 0 1 750.88072 196.23781 A 1.28815 1.28815 0 0 1 750.88238 196.23697 A 1.28815 1.28815 0 0 1 751.10292 196.1188 A 1.28815 1.28815 0 0 1 751.17616 196.09633 A 1.28815 1.28815 0 0 1 751.34677 196.04473 A 1.28815 1.28815 0 0 1 751.59644 196.01976 A 1.28815 1.28815 0 0 0 751.59727 196.01976 L 755.85 196.01976 A 1.28815 1.28815 0 0 1 757.13664 197.3089 A 1.28815 1.28815 0 0 1 755.85 198.59553 L 752.13323 198.59553 L 750.69513 200.03697 L 750.69513 203.2286 L 752.13323 204.67003 L 755.31404 204.67003 L 756.74965 203.2311 L 756.74965 202.92067 L 754.20384 202.92067 C 753.49323 202.9201 752.91777 202.34464 752.9172 201.63403 C 752.9167 200.92266 753.49247 200.34547 754.20384 200.3449 L 757.64181 200.3449 A 1.28815 1.28815 0 0 1 758.03879 200.27915 A 1.28815 1.28815 0 0 1 759.32626 201.56829 L 759.32626 203.74042 A 1.28815 1.28815 0 0 1 759.02998 204.58348 A 1.28815 1.28815 0 0 1 759.02 204.59596 A 1.28815 1.28815 0 0 1 758.95092 204.6717 L 756.79043 206.83635 A 1.28815 1.28815 0 0 1 755.85 207.24581 L 751.59727 207.24581 A 1.28815 1.28815 0 0 0 751.59644 207.24581 z " />
      <path
         id="path47316"
         style="color:#000000;fill:#000000;stroke-linecap:round;stroke-miterlimit:10;-inkscape-stroke:none"
         d="M 762.28902 207.24581 A 1.28815 1.28815 0 0 1 761.00155 205.95667 L 761.00155 201.57494 A 1.28815 1.28815 0 0 1 761.00155 201.5583 L 761.00155 197.3089 A 1.28815 1.28815 0 0 1 761.0415 197.00929 A 1.28815 1.28815 0 0 1 761.0673 196.92274 A 1.28815 1.28815 0 0 1 761.15136 196.71884 A 1.28815 1.28815 0 0 1 761.19546 196.63645 A 1.28815 1.28815 0 0 1 761.61991 196.21201 A 1.28815 1.28815 0 0 1 761.69481 196.17206 A 1.28815 1.28815 0 0 1 761.90536 196.08467 A 1.28815 1.28815 0 0 1 761.98859 196.05971 A 1.28815 1.28815 0 0 1 762.28902 196.01976 A 1.28815 1.28815 0 0 1 762.40138 196.02475 A 1.28815 1.28815 0 0 1 762.40304 196.02475 A 1.28815 1.28815 0 0 1 762.49459 196.0364 A 1.28815 1.28815 0 0 1 762.5312 196.04306 A 1.28815 1.28815 0 0 1 762.59113 196.05638 A 1.28815 1.28815 0 0 1 762.6369 196.0672 A 1.28815 1.28815 0 0 1 762.73011 196.09716 A 1.28815 1.28815 0 0 1 762.74759 196.10465 A 1.28815 1.28815 0 0 1 762.82166 196.13544 A 1.28815 1.28815 0 0 1 762.84829 196.14792 A 1.28815 1.28815 0 0 1 762.91653 196.18288 A 1.28815 1.28815 0 0 1 762.94566 196.19952 A 1.28815 1.28815 0 0 1 763.02888 196.25279 A 1.28815 1.28815 0 0 1 763.03304 196.25528 A 1.28815 1.28815 0 0 1 763.11793 196.32103 A 1.28815 1.28815 0 0 1 763.12709 196.32935 A 1.28815 1.28815 0 0 1 763.18867 196.38594 A 1.28815 1.28815 0 0 1 763.21614 196.41258 A 1.28815 1.28815 0 0 1 763.27689 196.47999 A 1.28815 1.28815 0 0 1 763.28105 196.48581 A 1.28815 1.28815 0 0 1 763.3984 196.65226 A 1.28815 1.28815 0 0 1 763.41504 196.68139 A 1.28815 1.28815 0 0 1 763.45748 196.76378 A 1.28815 1.28815 0 0 1 763.46081 196.77127 A 1.28815 1.28815 0 0 1 763.50076 196.86781 A 1.28815 1.28815 0 0 1 763.50409 196.87696 A 1.28815 1.28815 0 0 1 763.55569 197.07088 A 1.28815 1.28815 0 0 1 763.56151 197.1025 A 1.28815 1.28815 0 0 1 763.57067 197.17657 A 1.28815 1.28815 0 0 1 763.574 197.20903 A 1.28815 1.28815 0 0 1 763.57816 197.3089 L 763.57816 201.03649 L 765.39077 202.85326 A 1.28815 1.28815 0 0 1 765.40825 202.8724 A 1.28815 1.28815 0 0 1 765.41824 202.88072 L 767.09769 204.67003 L 768.73054 204.67003 A 1.28815 1.28815 0 0 1 770.01718 205.95667 A 1.28815 1.28815 0 0 1 768.73054 207.24581 L 766.54092 207.24581 A 1.28815 1.28815 0 0 1 766.51762 207.24414 A 1.28815 1.28815 0 0 1 766.44022 207.23748 A 1.28815 1.28815 0 0 1 766.27794 207.21585 A 1.28815 1.28815 0 0 1 766.19305 207.19338 A 1.28815 1.28815 0 0 1 766.04824 207.14427 A 1.28815 1.28815 0 0 1 765.96668 207.10599 A 1.28815 1.28815 0 0 1 765.83519 207.03109 A 1.28815 1.28815 0 0 1 765.75945 206.97783 A 1.28815 1.28815 0 0 1 765.6471 206.87962 A 1.28815 1.28815 0 0 1 765.60133 206.83968 L 763.57816 204.68418 L 763.57816 205.95667 A 1.28815 1.28815 0 0 1 762.28902 207.24581 z " />
    </g>
  </g>
</svg>
